<svg xmlns="http://www.w3.org/2000/svg" width="512" height="512" viewBox="0 0 512 512">
  <rect width="512" height="512" rx="100" fill="#0b0e14"/>
  <g transform="translate(256,280)">
    <path d="M0,-100 C28,-55 38,-20 32,12 C30,25 26,32 22,40 C16,52 20,62 14,72 C10,80 0,88 -14,72 C-20,62 -16,52 -22,40 C-26,32 -30,25 -32,12 C-38,-20 -28,-55 0,-100 Z" fill="#f97316"/>
    <path d="M0,-65 C18,-35 24,-8 20,10 C18,18 16,22 13,28 C10,36 12,42 8,48 C6,52 0,56 -8,48 C-12,42 -10,36 -13,28 C-16,22 -18,18 -20,10 C-24,-8 -18,-35 0,-65 Z" fill="#fbbf24"/>
    <path d="M0,-40 C10,-18 13,2 11,12 C10,16 8,18 6,22 C4,28 6,32 4,36 C2,38 0,40 -4,36 C-6,32 -4,28 -6,22 C-8,18 -10,16 -11,12 C-13,2 -10,-18 0,-40 Z" fill="#fff" opacity="0.6"/>
  </g>
</svg>